<?xml version="1.0" encoding="UTF-8"?>
<svg width="150px" height="22px" viewBox="0 0 150 22" version="1.1" xmlns="http://www.w3.org/2000/svg" xmlns:xlink="http://www.w3.org/1999/xlink">
    <!-- Generator: Sketch 53.2 (72643) - https://sketchapp.com -->
    <title>EG_Wordmark_blue_RGB</title>
    <desc>Created with Sketch.</desc>
    <defs>
        <polygon id="path-1" points="0.0110769231 0.130984848 11.9396308 0.130984848 11.9396308 12.8954091 0.0110769231 12.8954091"></polygon>
        <polygon id="path-3" points="0.172919255 0.1751 29.822236 0.1751 29.822236 16.9886667 0.172919255 16.9886667"></polygon>
    </defs>
    <g id="EG_Wordmark_blue_RGB" stroke="none" stroke-width="1" fill="none" fill-rule="evenodd">
        <g id="Group-3" transform="translate(0.000000, 5.000000)">
            <mask id="mask-2" fill="white">
                <use xlink:href="#path-1"></use>
            </mask>
            <g id="Clip-2"></g>
            <path d="M9.05778462,6.02234848 C9.05778462,4.7820303 7.99218462,2.99906061 5.93353846,2.99906061 C4.06873846,2.99906061 2.80947692,4.70442424 2.80947692,6.46159091 C2.80947692,8.55439394 4.16566154,10.0531364 6.49070769,10.0531364 L10.8982154,10.0531364 C9.8568,11.784303 8.04055385,12.8954091 5.95772308,12.8954091 C2.664,12.8954091 0,10.0273333 0,6.51319697 C0,2.99906061 2.664,0.130984848 5.95772308,0.130984848 C9.25144615,0.130984848 11.9396308,2.99906061 11.9396308,6.51319697 C11.9396308,7.21086364 11.8185231,7.88272727 11.6490462,8.50278788 L4.98904615,8.50278788 L4.98904615,7.80512121 L7.33809231,7.72751515 C8.5248,7.67590909 9.05778462,7.03004545 9.05778462,6.02234848" id="Fill-1" fill="#282D70" mask="url(#mask-2)"></path>
        </g>
        <polyline id="Fill-4" fill="#282D70" points="17.0126141 8.56896892 19.3875399 5 22.6716471 5 18.6295357 10.7671683 23 17 19.5136814 17 16.9115084 13.1207202 14.2842997 17 11 17 15.2947794 10.9225209 11.126334 5 14.6126527 5 17.0126141 8.56896892"></polyline>
        <path d="M30.0241601,14.9507132 C31.7177635,14.9507132 33.1935573,13.3983453 33.1935573,11.2350793 C33.1935573,9.07181331 31.7177635,7.5194454 30.0241601,7.5194454 C28.3547167,7.5194454 26.8547629,9.07181331 26.8547629,11.2350793 C26.8547629,13.3983453 28.3547167,14.9507132 30.0241601,14.9507132 Z M27.0240679,7.64670775 C27.8468017,5.81440146 29.3225955,5 30.8225494,5 C33.5323518,5 36,7.41779071 36,11.2350793 C36,15.0523679 33.5323518,17.4701586 30.8225494,17.4701586 C29.3225955,17.4701586 27.8468017,16.6557572 27.0240679,14.8234509 C26.9757477,14.7216022 26.903083,14.7470159 26.903083,14.8488645 L26.903083,22 L24,22 L24,5.33095972 L26.903083,5.33095972 L26.903083,7.62129408 C26.903083,7.72314276 26.9757477,7.74855643 27.0240679,7.64670775 L27.0240679,7.64670775 Z" id="Fill-5" fill="#282D70"></path>
        <path d="M46.1033971,10.538547 C46.1033971,9.37250787 45.0325947,7.69631504 42.9635397,7.69631504 C41.0893108,7.69631504 39.8236822,9.29954941 39.8236822,10.9514845 C39.8236822,12.9189556 41.186724,14.3279427 43.5233405,14.3279427 L47.9535046,14.3279427 C46.9068236,15.9554348 45.0812085,17 42.9878466,17 C39.6774697,17 37,14.303685 37,11 C37,7.69631504 39.6774697,5 42.9878466,5 C46.2982234,5 49,7.69631504 49,11 C49,11.6558854 48.87828,12.2875131 48.7079461,12.8704401 L42.0142718,12.8704401 L42.0142718,12.2145547 L44.3753808,12.1415962 C45.5680887,12.0930807 46.1033971,11.4858959 46.1033971,10.538547" id="Fill-6" fill="#282D70"></path>
        <path d="M55.9759325,7.1960716 C54.2823551,7.1960716 52.806584,8.72554024 52.806584,10.8568955 C52.806584,12.9882508 54.2823551,14.5177194 55.9759325,14.5177194 C57.6453502,14.5177194 59.145281,12.9882508 59.145281,10.8568955 C59.145281,8.72554024 57.6453502,7.1960716 55.9759325,7.1960716 Z M58.9757942,14.3923343 C58.1532574,16.1976119 56.6776707,17 55.1775554,17 C52.4677947,17 50,14.6178746 50,10.8568955 C50,7.09591644 52.4677947,4.71379101 55.1775554,4.71379101 C56.6776707,4.71379101 58.1532574,5.51617908 58.9757942,7.32145668 C59.024298,7.42180297 59.0967772,7.39676418 59.0967772,7.29641789 L59.0967772,0 L62,0 L62,16.6739223 L59.0967772,16.6739223 L59.0967772,14.4173731 C59.0967772,14.3170268 59.024298,14.291988 58.9757942,14.3923343 L58.9757942,14.3923343 Z" id="Fill-7" fill="#282D70"></path>
        <path d="M64.2142974,17 L66.7855393,17 L66.7855393,5.2093275 L64.2142974,5.2093275 L64.2142974,17 Z M64,1.77879948 C64,0.813176546 64.6856863,0 65.5000817,0 C66.3143137,0 67,0.813176546 67,1.77879948 C67,2.74442242 66.3143137,3.55759896 65.5000817,3.55759896 C64.6856863,3.55759896 64,2.74442242 64,1.77879948 L64,1.77879948 Z" id="Fill-8" fill="#282D70"></path>
        <g id="Group-12" transform="translate(69.000000, 5.000000)">
            <mask id="mask-4" fill="white">
                <use xlink:href="#path-3"></use>
            </mask>
            <g id="Clip-10"></g>
            <path d="M6.21055901,2.6282 C4.49944099,2.6282 3.00838509,4.13968889 3.00838509,6.24598889 C3.00838509,8.35228889 4.49944099,9.86377778 6.21055901,9.86377778 C7.89726708,9.86377778 9.41273292,8.35228889 9.41273292,6.24598889 C9.41273292,4.13968889 7.89726708,2.6282 6.21055901,2.6282 Z M9.24149068,9.73986667 C8.41043478,11.5239222 6.91937888,12.3168778 5.40391304,12.3168778 C2.66608696,12.3168778 0.172919255,9.96275556 0.172919255,6.24598889 C0.172919255,2.52922222 2.66608696,0.1751 5.40391304,0.1751 C6.91937888,0.1751 8.41043478,0.968055556 9.24149068,2.75211111 C9.29049689,2.85127778 9.36372671,2.82653333 9.36372671,2.72736667 L9.36372671,0.497344444 L12.2970186,0.497344444 L12.2970186,11.9946333 L9.36372671,11.9946333 L9.36372671,9.76461111 C9.36372671,9.66544444 9.29049689,9.6407 9.24149068,9.73986667 L9.24149068,9.73986667 Z" id="Fill-9" fill="#282D70" mask="url(#mask-4)"></path>
            <path d="M23.7845963,2.6282 C22.0980745,2.6282 20.6314286,4.11494444 20.6314286,6.1965 C20.6314286,8.27786667 22.0980745,9.76461111 23.7845963,9.76461111 C25.4468944,9.76461111 26.937764,8.27786667 26.937764,6.1965 C26.937764,4.11494444 25.4468944,2.6282 23.7845963,2.6282 Z M26.8891304,9.66544444 C26.8891304,9.56627778 26.8157143,9.54153333 26.7668944,9.6407 C25.9356522,11.4247556 24.4690062,12.2177111 22.9779503,12.2177111 C20.2647205,12.2177111 17.7957764,9.88852222 17.7957764,6.1965 C17.7957764,2.50428889 20.2647205,0.1751 22.9779503,0.1751 C24.4690062,0.1751 25.9356522,0.968055556 26.7668944,2.75211111 C26.8157143,2.85127778 26.8891304,2.82653333 26.8891304,2.72736667 L26.8891304,0.497344444 L29.822236,0.497344444 L29.822236,11.3255889 C29.822236,14.5221556 27.6467702,17 23.8824224,17 C21.7803727,17 19.9470186,16.2567222 18.6026087,14.9930556 L20.3625466,13.0601556 C21.5357143,14.0017667 22.4647826,14.4974111 23.8336025,14.4974111 C25.9846584,14.4974111 26.8891304,12.9609889 26.8891304,11.0530222 L26.8891304,9.66544444 L26.8891304,9.66544444 Z" id="Fill-11" fill="#282D70" mask="url(#mask-4)"></path>
        </g>
        <path d="M103.903267,5.32716464 L103.903267,7.86796433 C103.903267,7.91820884 103.951588,7.9433311 103.975932,7.86796433 C104.362862,5.77994055 105.233916,5 106.73387,5 L107,5 L107,8.16981494 L105.693511,8.16981494 C104.508007,8.16981494 103.903267,9.12580305 103.903267,10.4843226 L103.903267,17 L101,17 L101,5.32716464 L103.903267,5.32716464" id="Fill-13" fill="#282D70"></path>
        <path d="M114,7.64779952 C112.251034,7.64779952 110.817789,9.10530214 110.817789,11 C110.817789,12.8946979 112.251034,14.3522005 114,14.3522005 C115.748966,14.3522005 117.182211,12.8946979 117.182211,11 C117.182211,9.10530214 115.748966,7.64779952 114,7.64779952 Z M114.024258,5 C117.303685,5 120,7.69631504 120,11 C120,14.303685 117.303685,17 114.024258,17 C110.696315,17 108,14.303685 108,11 C108,7.69631504 110.696315,5 114.024258,5 L114.024258,5 Z" id="Fill-14" fill="#282D70"></path>
        <path d="M125.961196,17 C122.938032,17 121,15.2212744 121,12.6158253 L121,5 L124.100772,5 L124.100772,12.3902858 C124.100772,13.5428099 124.876064,14.2942899 126.038804,14.2942899 C127.09833,14.2942899 127.899228,13.5177923 127.899228,12.4154943 L127.899228,5 L131,5 L131,12.6158253 C131,15.2212744 128.906949,17 125.961196,17" id="Fill-15" fill="#282D70"></path>
        <path d="M139.024252,14.9507132 C140.717829,14.9507132 142.1936,13.3983453 142.1936,11.2350793 C142.1936,9.07181331 140.717829,7.5194454 139.024252,7.5194454 C137.354834,7.5194454 135.854903,9.07181331 135.854903,11.2350793 C135.854903,13.3983453 137.354834,14.9507132 139.024252,14.9507132 Z M136.024206,7.64670775 C136.846927,5.81440146 138.322514,5 139.822629,5 C142.53239,5 145,7.41779071 145,11.2350793 C145,15.0523679 142.53239,17.4701586 139.822629,17.4701586 C138.322514,17.4701586 136.846927,16.6557572 136.024206,14.8234509 C135.975886,14.7216022 135.903223,14.7470159 135.903223,14.8488645 L135.903223,22 L133,22 L133,5.33095972 L135.903223,5.33095972 L135.903223,7.62129408 C135.903223,7.72314276 135.975886,7.74855643 136.024206,7.64670775 L136.024206,7.64670775 Z" id="Fill-16" fill="#282D70"></path>
        <polyline id="Fill-17" fill="#282D70" points="148 5 148 5.35419412 147.630744 5.35419412 147.630744 7 147.371018 7 147.371018 5.35419412 147 5.35419412 147 5 148 5"></polyline>
        <path d="M149.378277,5 L150,5 L150,7 L149.597322,7 L149.597322,5.647343 C149.597322,5.60847606 149.597776,5.55379886 149.598683,5.48375055 C149.599818,5.41370224 149.600272,5.35968379 149.600272,5.32169521 L149.208489,7 L148.78856,7 L148.399728,5.32169521 C148.399728,5.35968379 148.400182,5.41370224 148.40109,5.48375055 C148.401998,5.55379886 148.402451,5.60847606 148.402451,5.647343 L148.402451,7 L148,7 L148,5 L148.628533,5 L149.00488,6.57246377 L149.378277,5" id="Fill-18" fill="#282D70"></path>
    </g>
</svg>